# xmcd
#
# Track frame offsets: 
#        150
#        17413
#        36252
#        60620
#        85969
#        119106
#        139523
#        166371
#        186200
#        207013
#        227398
#        244877
#        267534
#        290230
#        317000
#
# Disc length: 4604 seconds
#
# Revision: 0
# Processed by: cddbd v1.5.2PL0 Copyright (c) Steve Scherf et al.
# Submitted via: ExactAudioCopy v1.0b3
#
DISCID=d911fa0f
DTITLE=Foghat - Boogie Motel - Tight Shoes 
DYEAR=2012
DGENRE=Rock
TTITLE0=Somebody's Been Sleeping in My Bed
TTITLE1=Third Time Lucky
TTITLE2=Comin' Down with Love
TTITLE3=Paradise Alley
TTITLE4=Boogie Motel
TTITLE5=Love in Motion
TTITLE6=Nervous Release
TTITLE7=Stranger in My Home Town
TTITLE8=Loose Ends
TTITLE9=Full Time Lover
TTITLE10=Baby Can I Change Your Mind
TTITLE11=Too Late the Hero
TTITLE12=Dead End Street
TTITLE13=Be My Woman
TTITLE14=No Hard Feelings
EXTD=
EXTT0=
EXTT1=
EXTT2=
EXTT3=
EXTT4=
EXTT5=
EXTT6=
EXTT7=
EXTT8=
EXTT9=
EXTT10=
EXTT11=
EXTT12=
EXTT13=
EXTT14=
PLAYORDER=
